<svg width="367" height="100" viewBox="0 0 367 100" fill="none" xmlns="http://www.w3.org/2000/svg">
<g clip-path="url(#clip0_328_291)">
<path d="M79.1987 7.08978C74.6144 2.51054 68.5423 0 62.0681 0H24.2281C17.7538 0 11.6616 2.51054 7.09752 7.08978C2.51329 11.669 0 17.7345 0 24.2016V65.8566C0 72.3238 2.51329 78.4093 7.09752 82.9685C11.6818 87.5477 17.7538 89.6967 24.2281 89.6967C24.2281 89.6967 42.8867 89.7369 49.2001 89.7369C54.287 89.7369 64.8026 100.221 66.9338 100C67.3561 100 67.7783 99.9197 68.1804 99.7389C69.2863 99.2569 70.0101 98.1522 70.0101 96.9271V88.7327C74.2927 87.2464 78.133 84.5551 80.9881 81.0002C82.677 78.8913 83.984 76.5616 84.8887 74.0309C85.8337 71.42 86.2962 68.6684 86.2962 65.8767V24.2016C86.2962 17.7345 83.7829 11.6489 79.1987 7.08978ZM79.9828 65.7562C79.9828 69.8936 78.6156 73.7899 76.042 77.0034C73.5287 80.1366 70.0101 82.3459 66.1296 83.2697C64.7422 83.5911 63.7771 84.8162 63.7771 86.2422V89.7771C63.7771 89.7771 52.8795 83.7518 50.326 83.7518H24.3487C14.4162 83.7518 6.33348 75.6779 6.33348 65.7562V24.3222C6.31337 14.4005 14.3961 6.34666 24.3286 6.34666H61.9676C71.9001 6.34666 79.9828 14.4206 79.9828 24.3422V65.7763V65.7562Z" fill="white"/>
<path d="M129.967 68.4676C126.469 68.4676 123.292 67.8852 120.396 66.7203C117.501 65.5554 115.008 63.9084 112.937 61.7795C110.846 59.6706 109.237 57.14 108.091 54.2278C106.945 51.3156 106.362 48.1221 106.362 44.6275C106.362 41.1328 106.945 37.9595 108.091 35.0673C109.237 32.1752 110.866 29.6646 112.937 27.5558C115.028 25.4268 117.501 23.8 120.396 22.615C123.292 21.4501 126.489 20.8677 129.967 20.8677C133.445 20.8677 136.642 21.4501 139.518 22.615C142.393 23.7799 144.886 25.4268 146.977 27.5558C149.088 29.6847 150.697 32.1752 151.863 35.0673C153.009 37.9595 153.592 41.1529 153.592 44.6275C153.592 48.1021 153.009 51.3156 151.863 54.2278C150.717 57.14 149.088 59.6506 146.977 61.7795C144.866 63.9084 142.393 65.5353 139.518 66.7203C136.642 67.8852 133.466 68.4676 129.967 68.4676ZM129.967 62.8841C132.541 62.8841 134.913 62.4222 137.085 61.4782C139.236 60.5544 141.126 59.269 142.714 57.622C144.303 55.9751 145.529 54.047 146.374 51.8177C147.218 49.6084 147.661 47.1983 147.661 44.6275C147.661 42.0567 147.238 39.6465 146.374 37.4373C145.529 35.228 144.303 33.2798 142.714 31.6329C141.126 29.986 139.256 28.7207 137.085 27.7968C134.913 26.893 132.561 26.431 129.967 26.431C127.373 26.431 125.021 26.893 122.849 27.7968C120.678 28.7006 118.828 29.986 117.26 31.6329C115.692 33.2798 114.465 35.2079 113.601 37.4373C112.736 39.6666 112.294 42.0567 112.294 44.6275C112.294 47.1983 112.736 49.6084 113.601 51.8177C114.465 54.047 115.692 55.9751 117.26 57.622C118.828 59.269 120.698 60.5544 122.849 61.4782C125.001 62.4021 127.373 62.8841 129.967 62.8841ZM146.213 66.9211L133.787 54.509C133.144 53.8663 132.842 53.1633 132.842 52.4001C132.842 51.6369 133.164 50.934 133.787 50.2913C134.431 49.6486 135.134 49.3473 135.898 49.3473C136.662 49.3473 137.366 49.6686 138.01 50.2913L150.435 62.7636C151.038 63.4063 151.34 64.0892 151.36 64.8524C151.36 65.5955 151.079 66.2985 150.435 66.9412C149.792 67.5839 149.088 67.8852 148.324 67.8852C147.56 67.8852 146.856 67.5638 146.213 66.9412V66.9211Z" fill="white"/>
<path d="M174 68.1664C171.265 68.1664 168.812 67.5839 166.661 66.419C164.489 65.2541 162.801 63.547 161.554 61.2774C160.307 59.028 159.684 56.2362 159.684 52.9625V38.3411C159.684 37.4775 159.966 36.7544 160.549 36.172C161.132 35.5895 161.856 35.3083 162.72 35.3083C163.585 35.3083 164.309 35.5895 164.892 36.172C165.475 36.7544 165.756 37.4775 165.756 38.3411V52.9625C165.756 55.1919 166.178 57.0195 167.003 58.4656C167.827 59.9117 168.973 60.9762 170.401 61.6791C171.828 62.3821 173.437 62.7235 175.226 62.7235C177.016 62.7235 178.443 62.3821 179.77 61.7193C181.097 61.0364 182.163 60.1326 182.947 58.9878C183.731 57.843 184.133 56.5576 184.133 55.1316H187.873C187.873 57.5819 187.27 59.8113 186.064 61.7795C184.857 63.7679 183.208 65.3345 181.117 66.4793C179.026 67.6241 176.674 68.2065 174 68.2065V68.1664ZM187.149 67.8651C186.285 67.8651 185.561 67.5839 184.978 67.0015C184.395 66.419 184.113 65.696 184.113 64.8323V38.321C184.113 37.4172 184.395 36.6741 184.978 36.1318C185.561 35.5694 186.285 35.3083 187.149 35.3083C188.014 35.3083 188.798 35.5895 189.361 36.1318C189.924 36.6942 190.185 37.4172 190.185 38.321V64.8323C190.185 65.696 189.904 66.419 189.361 67.0015C188.798 67.5839 188.074 67.8651 187.149 67.8651Z" fill="white"/>
<path d="M212.081 68.1062C209.186 68.1062 206.592 67.3832 204.28 65.9371C201.988 64.491 200.158 62.5227 198.831 60.0524C197.504 57.582 196.841 54.7702 196.841 51.637C196.841 48.5039 197.564 45.6921 199.012 43.2016C200.46 40.7111 202.43 38.7429 204.903 37.2968C207.376 35.8507 210.171 35.1277 213.267 35.1277C216.364 35.1277 219.138 35.8507 221.591 37.2968C224.044 38.7429 225.995 40.7111 227.442 43.2016C228.89 45.6921 229.614 48.5039 229.614 51.637H227.302C227.302 54.7702 226.638 57.5619 225.311 60.0524C223.984 62.5227 222.174 64.491 219.862 65.9371C217.57 67.3832 214.956 68.1062 212.061 68.1062H212.081ZM213.267 62.7638C215.298 62.7638 217.088 62.2817 218.676 61.3177C220.264 60.3536 221.511 59.0281 222.416 57.341C223.321 55.6539 223.783 53.766 223.783 51.6571C223.783 49.5482 223.321 47.6001 222.416 45.913C221.511 44.2259 220.244 42.9003 218.676 41.9363C217.088 40.9722 215.278 40.4902 213.267 40.4902C211.257 40.4902 209.487 40.9722 207.879 41.9363C206.27 42.9003 205.004 44.2259 204.079 45.913C203.154 47.6001 202.671 49.5081 202.671 51.6571C202.671 53.8061 203.134 55.6539 204.079 57.341C205.004 59.0281 206.291 60.3536 207.879 61.3177C209.487 62.2817 211.277 62.7638 213.267 62.7638ZM226.598 67.9254C225.733 67.9254 225.009 67.6443 224.426 67.0618C223.843 66.4794 223.562 65.7563 223.562 64.8927V55.7945L224.688 49.488L229.634 51.637V64.8927C229.634 65.7563 229.352 66.4794 228.769 67.0618C228.186 67.6443 227.462 67.9254 226.598 67.9254Z" fill="white"/>
<path d="M244.03 67.8651C242.281 67.8651 240.733 67.3831 239.385 66.4391C238.038 65.4952 236.993 64.1897 236.229 62.5428C235.465 60.8959 235.103 59.0079 235.103 56.8589V24.4227C235.103 23.5591 235.384 22.836 235.927 22.2737C236.49 21.7113 237.194 21.4502 238.079 21.4502C238.963 21.4502 239.667 21.7314 240.23 22.2737C240.793 22.836 241.054 23.539 241.054 24.4227V56.879C241.054 58.3451 241.336 59.5502 241.879 60.5143C242.442 61.4582 243.145 61.9402 244.03 61.9402H245.518C246.302 61.9402 246.945 62.2214 247.448 62.7637C247.951 63.3261 248.192 64.029 248.192 64.9127C248.192 65.7964 247.81 66.4994 247.066 67.0618C246.302 67.6241 245.337 67.8852 244.151 67.8852H244.03V67.8651Z" fill="white"/>
<path d="M255.39 30.0664C254.324 30.0664 253.4 29.6848 252.615 28.9015C251.831 28.1182 251.449 27.2144 251.449 26.1299C251.449 25.0453 251.831 24.1415 252.615 23.3583C253.379 22.595 254.304 22.1934 255.39 22.1934C256.476 22.1934 257.381 22.575 258.165 23.3583C258.929 24.1215 259.331 25.0453 259.331 26.1299C259.331 27.2144 258.949 28.1182 258.165 28.9015C257.381 29.6848 256.476 30.0664 255.39 30.0664ZM255.39 67.8652C254.525 67.8652 253.802 67.584 253.219 67.0016C252.635 66.4191 252.354 65.6961 252.354 64.8324V38.3814C252.354 37.4776 252.635 36.7344 253.219 36.1922C253.802 35.6298 254.525 35.3687 255.39 35.3687C256.255 35.3687 257.039 35.6499 257.602 36.1922C258.165 36.7545 258.426 37.4776 258.426 38.3814V64.8324C258.426 65.6961 258.145 66.4191 257.602 67.0016C257.039 67.584 256.315 67.8652 255.39 67.8652Z" fill="white"/>
<path d="M265.383 41.6549C264.559 41.6549 263.875 41.4139 263.352 40.952C262.829 40.47 262.588 39.8875 262.588 39.1645C262.588 38.3812 262.849 37.7385 263.352 37.2565C263.855 36.7745 264.538 36.5334 265.383 36.5334H280.141C280.965 36.5334 281.649 36.7745 282.172 37.2565C282.694 37.7385 282.936 38.3611 282.936 39.1645C282.936 39.8875 282.674 40.47 282.172 40.952C281.649 41.434 280.985 41.6549 280.141 41.6549H265.383ZM270.972 67.865C270.108 67.865 269.384 67.5638 268.801 66.9813C268.218 66.3989 267.936 65.6758 267.936 64.8323V35.5292C267.936 32.5567 268.519 29.9859 269.686 27.8369C270.852 25.6879 272.702 24.0008 275.215 22.8158C277.728 21.6308 281.005 21.0283 285.007 21.0283C286.917 21.0283 288.565 21.2492 289.973 21.6911C291.38 22.133 292.486 22.7154 293.27 23.4786C294.054 24.2418 294.457 25.1255 294.457 26.1498C294.457 27.8972 293.391 28.7608 291.24 28.7608C290.415 28.7608 289.671 28.58 289.008 28.2185C288.344 27.857 287.701 27.4553 287.078 26.9733C286.434 26.4913 285.771 26.0896 285.047 25.7281C284.343 25.3665 283.499 25.1858 282.554 25.1858C281.086 25.1858 279.699 25.467 278.392 26.0494C277.085 26.6319 276.019 27.6562 275.215 29.1625C274.411 30.6688 273.988 32.7978 273.988 35.5292V64.8323C273.988 65.6557 273.707 66.3788 273.124 66.9813C272.541 67.5838 271.817 67.865 270.952 67.865H270.972ZM290.777 67.865C289.913 67.865 289.189 67.5838 288.606 67.0014C288.023 66.419 287.741 65.6959 287.741 64.8323V38.3812C287.741 37.4774 288.023 36.7343 288.606 36.192C289.189 35.6296 289.913 35.3685 290.777 35.3685C291.642 35.3685 292.426 35.6497 292.989 36.192C293.552 36.7544 293.813 37.4774 293.813 38.3812V64.8323C293.813 65.6959 293.532 66.419 292.989 67.0014C292.426 67.5838 291.702 67.865 290.777 67.865Z" fill="white"/>
<path d="M317.257 68.1062C314.08 68.1062 311.266 67.3832 308.772 65.9371C306.299 64.491 304.349 62.5227 302.941 60.0524C301.534 57.582 300.83 54.7702 300.83 51.637C300.83 48.5039 301.514 45.5716 302.921 43.0811C304.309 40.5906 306.219 38.6424 308.632 37.2365C311.044 35.8306 313.819 35.1277 316.956 35.1277C319.288 35.1277 321.439 35.5695 323.39 36.4733C325.34 37.357 327.069 38.7027 328.617 40.4902C329.18 41.1329 329.361 41.7756 329.22 42.4585C329.06 43.1413 328.617 43.7238 327.913 44.246C327.351 44.6477 326.747 44.7682 326.064 44.6276C325.38 44.487 324.777 44.1456 324.214 43.5832C322.264 41.5145 319.851 40.4902 316.956 40.4902C314.925 40.4902 313.155 40.9521 311.607 41.8961C310.059 42.82 308.853 44.1255 307.968 45.7925C307.103 47.4595 306.661 49.4277 306.661 51.6772C306.661 53.8262 307.103 55.7141 308.008 57.3811C308.893 59.0481 310.14 60.3536 311.728 61.3378C313.316 62.3018 315.166 62.7838 317.257 62.7838C318.644 62.7838 319.871 62.6232 320.917 62.2817C321.962 61.9403 322.927 61.4181 323.812 60.7152C324.455 60.193 325.099 59.9118 325.782 59.8515C326.466 59.7913 327.049 59.972 327.572 60.4139C328.255 60.9762 328.617 61.5989 328.698 62.2817C328.778 62.9847 328.537 63.6073 327.994 64.1496C325.139 66.8007 321.56 68.1263 317.277 68.1263L317.257 68.1062Z" fill="white"/>
<path d="M349.447 68.1062C346.552 68.1062 343.958 67.3832 341.646 65.9371C339.354 64.491 337.524 62.5227 336.197 60.0524C334.87 57.582 334.207 54.7702 334.207 51.637C334.207 48.5039 334.931 45.6921 336.378 43.2016C337.826 40.7111 339.796 38.7429 342.269 37.2968C344.742 35.8507 347.537 35.1277 350.634 35.1277C353.73 35.1277 356.505 35.8507 358.958 37.2968C361.411 38.7429 363.361 40.7111 364.809 43.2016C366.256 45.6921 366.98 48.5039 366.98 51.637H364.668C364.668 54.7702 364.004 57.5619 362.677 60.0524C361.35 62.5227 359.541 64.491 357.228 65.9371C354.936 67.3832 352.323 68.1062 349.427 68.1062H349.447ZM350.634 62.7638C352.664 62.7638 354.454 62.2817 356.042 61.3177C357.631 60.3536 358.877 59.0281 359.782 57.341C360.687 55.6539 361.149 53.766 361.149 51.6571C361.149 49.5482 360.687 47.6001 359.782 45.913C358.877 44.2259 357.611 42.9003 356.042 41.9363C354.454 40.9722 352.644 40.4902 350.634 40.4902C348.623 40.4902 346.854 40.9722 345.245 41.9363C343.637 42.9003 342.37 44.2259 341.445 45.913C340.52 47.6001 340.038 49.5081 340.038 51.6571C340.038 53.8061 340.5 55.6539 341.445 57.341C342.37 59.0281 343.657 60.3536 345.245 61.3177C346.854 62.2817 348.643 62.7638 350.634 62.7638ZM363.964 67.9254C363.1 67.9254 362.376 67.6443 361.793 67.0618C361.21 66.4794 360.928 65.7563 360.928 64.8927V55.7945L362.054 49.488L367 51.637V64.8927C367 65.7563 366.719 66.4794 366.136 67.0618C365.552 67.6443 364.829 67.9254 363.964 67.9254Z" fill="white"/>
<path fill-rule="evenodd" clip-rule="evenodd" d="M61.2237 53.324C56.0966 56.0354 42.7661 63.0047 31.1849 68.4676C30.8431 68.6283 30.4008 68.8292 29.9182 69.03C39.4285 69.03 62.1486 68.9898 62.1486 68.9898C66.6122 68.8292 67.1752 68.4877 67.1953 64.6516V48.082C66.009 50.2511 63.8978 52.1592 61.2036 53.304L61.2237 53.324Z" fill="white"/>
<path fill-rule="evenodd" clip-rule="evenodd" d="M20.3877 29.1625V60.1326C20.4681 61.8397 20.9708 66.1177 23.5846 67.4634C25.7963 68.6082 28.6916 67.2224 30.2599 66.4993C41.7808 61.0565 55.1112 54.0872 60.2987 51.3557C64.8226 49.4477 66.7327 45.471 66.029 42.6994C65.5263 40.711 63.8173 39.4859 62.8321 38.9436L30.9033 23.9205C28.9329 22.7958 27.1233 22.2334 25.5751 22.2334C24.6301 22.2334 23.7857 22.4342 23.0618 22.856C21.3327 23.8602 20.3877 26.0896 20.3877 29.1424V29.1625Z" fill="#F8AD1D"/>
</g>
<defs>
<clipPath id="clip0_328_291">
<rect width="367" height="100" fill="white"/>
</clipPath>
</defs>
</svg>
