<svg width="50" height="50" viewBox="0 0 50 50" fill="none" xmlns="http://www.w3.org/2000/svg">
<path d="M39.5833 39.5833H10.4167V10.4167H27.0833V6.25H10.4167C8.125 6.25 6.25 8.125 6.25 10.4167V39.5833C6.25 41.875 8.125 43.75 10.4167 43.75H39.5833C41.875 43.75 43.75 41.875 43.75 39.5833V22.9167H39.5833V39.5833ZM31.25 27.0833V35.4167H35.4167V27.0833H31.25ZM22.9167 35.4167H27.0833V18.75H22.9167V35.4167ZM18.75 35.4167V22.9167H14.5833V35.4167H18.75Z" fill="white"/>
<path fill-rule="evenodd" clip-rule="evenodd" d="M38 6C34.4654 6 32 8.46538 32 12C32 15.5346 34.4654 18 38 18C41.5346 18 44 15.5346 44 12C44 8.46538 41.5346 6 38 6ZM30 12C30 7.58172 33.5817 4 38 4C42.4183 4 46 7.58172 46 12C46 16.4183 42.4183 20 38 20C33.5817 20 30 16.4183 30 12ZM38 7.2C38.4418 7.2 38.8 7.55817 38.8 8V11.2H42C42.4418 11.2 42.8 11.5582 42.8 12C42.8 12.4418 42.4418 12.8 42 12.8H38C37.5582 12.8 37.2 12.4418 37.2 12V8C37.2 7.55817 37.5582 7.2 38 7.2Z" fill="white"/>
</svg>
