<svg width="50" height="50" viewBox="0 0 50 50" fill="none" xmlns="http://www.w3.org/2000/svg">
<path d="M39.5833 39.5833H10.4167V10.4167H27.0833V6.25H10.4167C8.125 6.25 6.25 8.125 6.25 10.4167V39.5833C6.25 41.875 8.125 43.75 10.4167 43.75H39.5833C41.875 43.75 43.75 41.875 43.75 39.5833V22.9167H39.5833V39.5833ZM31.25 27.0833V35.4167H35.4167V27.0833H31.25ZM22.9167 35.4167H27.0833V18.75H22.9167V35.4167ZM18.75 35.4167V22.9167H14.5833V35.4167H18.75Z" fill="white"/>
<path d="M35.1875 19.86L29 13.11L31.61 10.5L35.1875 14.055L43.2425 6L45.875 9.1725L35.1875 19.86Z" fill="white"/>
</svg>
