<svg width="60" height="60" viewBox="0 0 60 60" fill="none" xmlns="http://www.w3.org/2000/svg">
<path d="M37.5 50C37.5 49.337 37.2366 48.7011 36.7678 48.2322C36.2989 47.7634 35.663 47.5 35 47.5H32.5V42.5H42.5C43.8261 42.5 45.0979 41.9732 46.0355 41.0355C46.9732 40.0979 47.5 38.8261 47.5 37.5V12.5C47.5 11.1739 46.9732 9.90215 46.0355 8.96447C45.0979 8.02678 43.8261 7.5 42.5 7.5H17.5C16.1739 7.5 14.9021 8.02678 13.9645 8.96447C13.0268 9.90215 12.5 11.1739 12.5 12.5V37.5C12.5 38.8261 13.0268 40.0979 13.9645 41.0355C14.9021 41.9732 16.1739 42.5 17.5 42.5H27.5V47.5H25C24.337 47.5 23.7011 47.7634 23.2322 48.2322C22.7634 48.7011 22.5 49.337 22.5 50H5V55H22.5C22.5 55.663 22.7634 56.2989 23.2322 56.7678C23.7011 57.2366 24.337 57.5 25 57.5H35C35.663 57.5 36.2989 57.2366 36.7678 56.7678C37.2366 56.2989 37.5 55.663 37.5 55H55V50H37.5ZM17.5 37.5V12.5H42.5V37.5H17.5ZM20 25.925L23.1 22.825L27.325 27.075L36.9 17.5L40 21.25L27.325 33.925L20 25.925Z" fill="#F8AD1D"/>
</svg>
