<svg width="60" height="60" viewBox="0 0 60 60" fill="none" xmlns="http://www.w3.org/2000/svg">
<path d="M39.65 10.975V48.475C39.65 52.65 42.5 55 45.625 55C48.475 55 51.6 53.025 51.6 48.475V11.25C51.6 7.4 48.75 5 45.625 5C42.5 5 39.65 7.65 39.65 10.975ZM24.025 30V48.475C24.025 52.675 26.925 55 30 55C32.85 55 35.975 53.025 35.975 48.475V30.275C35.975 26.425 33.125 24.025 30 24.025C26.875 24.025 24.025 26.675 24.025 30ZM14.375 43.075C17.675 43.075 20.35 45.75 20.35 49.025C20.35 52.325 17.675 55 14.375 55C11.075 55 8.40002 52.325 8.40002 49.025C8.40002 45.75 11.075 43.075 14.375 43.075Z" fill="#F8AD1D"/>
</svg>
