<svg width="60" height="60" viewBox="0 0 60 60" fill="none" xmlns="http://www.w3.org/2000/svg">
<path d="M30 57.5C29.337 57.5 28.7011 57.2366 28.2322 56.7678C27.7634 56.2989 27.5 55.663 27.5 55V47.5H17.5C16.1739 47.5 14.9021 46.9732 13.9645 46.0355C13.0268 45.0979 12.5 43.8261 12.5 42.5V17.5C12.5 14.725 14.75 12.5 17.5 12.5H52.5C53.8261 12.5 55.0979 13.0268 56.0355 13.9645C56.9732 14.9021 57.5 16.1739 57.5 17.5V42.5C57.5 43.8261 56.9732 45.0979 56.0355 46.0355C55.0979 46.9732 53.8261 47.5 52.5 47.5H42.25L33 56.775C32.5 57.25 31.875 57.5 31.25 57.5H30ZM32.5 42.5V50.2L40.2 42.5H52.5V17.5H17.5V42.5H32.5ZM7.5 37.5H2.5V7.5C2.5 6.17392 3.02678 4.90215 3.96447 3.96447C4.90215 3.02678 6.17392 2.5 7.5 2.5H47.5V7.5H7.5V37.5Z" fill="#F8AD1D"/>
</svg>
