<svg width="63" height="60" viewBox="0 0 63 60" fill="none" xmlns="http://www.w3.org/2000/svg">
<path d="M31 53.375L27.375 50.075C14.5 38.4 6 30.675 6 21.25C6 13.525 12.05 7.5 19.75 7.5C24.1 7.5 28.275 9.525 31 12.7C33.725 9.525 37.9 7.5 42.25 7.5C49.95 7.5 56 13.525 56 21.25C56 30.675 47.5 38.4 34.625 50.075L31 53.375Z" fill="#FF8A33"/>
<path d="M21.8333 28C21.8333 29.1819 22.0704 30.3522 22.531 31.4442C22.9917 32.5361 23.6669 33.5282 24.5181 34.364C26.2372 36.0518 28.5688 37 30.9999 37C33.4311 37 35.7626 36.0518 37.4817 34.364C38.3329 33.5282 39.0081 32.5361 39.4688 31.4442C39.9295 30.3522 40.1666 29.1819 40.1666 28L21.8333 28Z" fill="white"/>
</svg>
