<svg width="40" height="40" viewBox="0 0 40 40" fill="none" xmlns="http://www.w3.org/2000/svg">
<path d="M35.1667 20.8333L37.5 23.1833L26.6167 34.1666L20.8333 28.3333L23.1667 25.9833L26.6167 29.45L35.1667 20.8333ZM16.6667 28.3333L21.6667 33.3333H5V30C5 26.3166 10.9667 23.3333 18.3333 23.3333L21.4833 23.5166L16.6667 28.3333ZM18.3333 6.66663C20.1014 6.66663 21.7971 7.369 23.0474 8.61925C24.2976 9.86949 25 11.5652 25 13.3333C25 15.1014 24.2976 16.7971 23.0474 18.0473C21.7971 19.2976 20.1014 20 18.3333 20C16.5652 20 14.8695 19.2976 13.6193 18.0473C12.369 16.7971 11.6667 15.1014 11.6667 13.3333C11.6667 11.5652 12.369 9.86949 13.6193 8.61925C14.8695 7.369 16.5652 6.66663 18.3333 6.66663Z" fill="#FF4D1E"/>
</svg>
