<svg width="40" height="40" viewBox="0 0 40 40" fill="none" xmlns="http://www.w3.org/2000/svg">
<path d="M18.3333 15C18.3333 17.7666 16.1 20 13.3333 20C10.5666 20 8.33331 17.7666 8.33331 15C8.33331 12.2333 10.5666 9.99996 13.3333 9.99996C16.1 9.99996 18.3333 12.2333 18.3333 15ZM23.3333 33.3333H3.33331V30C3.33331 26.3166 7.81665 23.3333 13.3333 23.3333C18.85 23.3333 23.3333 26.3166 23.3333 30V33.3333ZM36.6666 20V23.3333H21.6666V20H36.6666ZM36.6666 13.3333V16.6666H21.6666V13.3333H36.6666ZM36.6666 6.66663V9.99996H21.6666V6.66663H36.6666Z" fill="#FF4D1E"/>
</svg>
