<svg width="40" height="40" viewBox="0 0 40 40" fill="none" xmlns="http://www.w3.org/2000/svg">
<path d="M21.8167 33.3334H10V6.66671H21.6667V15H30V21.8167C30.55 21.7334 31.1 21.6667 31.6667 21.6667C32.2334 21.6667 32.7834 21.7334 33.3334 21.8167V13.3334L23.3334 3.33337H10C8.15002 3.33337 6.66669 4.83337 6.66669 6.66671V33.3334C6.66669 35.1834 8.15002 36.6667 10 36.6667H23.0167C22.4334 35.65 22.0167 34.5334 21.8167 33.3334ZM35.2 25.7667L31.6667 29.3167L28.1334 25.7834L25.7834 28.1334L29.3167 31.6667L25.7834 35.2L28.1334 37.5667L31.6667 34.0167L35.2 37.5667L37.5667 35.2L34.0167 31.6667L37.5667 28.1334L35.2 25.7667Z" fill="#FF4D1E"/>
</svg>
