<svg width="40" height="40" viewBox="0 0 40 40" fill="none" xmlns="http://www.w3.org/2000/svg">
<path d="M23.9125 28.6504L18.9344 34.0908H4V30.8906C4 26.9614 10.3649 23.779 18.2232 23.779H19.2899L23.9125 28.6504ZM18.2232 6C20.1093 6 21.9182 6.74926 23.2519 8.08294C24.5855 9.41662 25.3348 11.2255 25.3348 13.1116C25.3348 14.9977 24.5855 16.8066 23.2519 18.1403C21.9182 19.4739 20.1093 20.2232 18.2232 20.2232C16.3371 20.2232 14.5282 19.4739 13.1945 18.1403C11.8609 16.8066 11.1116 14.9977 11.1116 13.1116C11.1116 11.2255 11.8609 9.41662 13.1945 8.08294C14.5282 6.74926 16.3371 6 18.2232 6Z" fill="#FF4D1E"/>
<path d="M30.2062 26.1436L33.9754 22.3567L36.5 24.8813L32.7131 28.6504L36.5 32.4196L33.9754 34.9442L30.2062 31.1573L26.4371 34.9442L23.9125 32.4196L27.6994 28.6504L23.9125 24.8813L26.4371 22.3567L30.2062 26.1436Z" fill="#FF4D1E"/>
</svg>
