<svg width="62" height="60" viewBox="0 0 62 60" fill="none" xmlns="http://www.w3.org/2000/svg">
<path d="M34.3 55.475L30.225 45.9C34.15 44.45 37.825 42.5 41.225 40.225L34.3 55.475ZM15.575 31.25L6 27.175L21.25 20.25C18.975 23.65 17.025 27.325 15.575 31.25ZM49.525 10C50.225 10 50.85 10 51.375 10.125C51.8 13.6 51.325 20.75 43.125 28.95C38.875 33.225 33.8 36.5 28.1 38.675L22.725 33.425C25.025 27.65 28.3 22.575 32.525 18.35C39.425 11.45 45.575 10 49.525 10ZM49.525 5C44.575 5 37.075 6.725 28.975 14.825C23.5 20.3 20.225 26.325 18.1 31.6C17.4 33.475 17.875 35.525 19.25 36.925L24.575 42.225C25.525 43.175 26.8 43.75 28.125 43.75C28.7 43.75 29.3 43.6 29.875 43.375C35.225 41.325 41.175 37.975 46.65 32.5C60.8 18.35 55.5 5.975 55.5 5.975C55.5 5.975 53.225 5 49.525 5ZM37.825 23.65C35.875 21.7 35.875 18.525 37.825 16.575C39.775 14.625 42.95 14.625 44.9 16.575C46.825 18.525 46.85 21.7 44.9 23.65C42.95 25.6 39.775 25.6 37.825 23.65ZM23.675 41.325L20.15 37.8L23.675 41.325ZM17.075 55L26.175 45.9C25.325 45.675 24.5 45.3 23.75 44.775L13.55 55H17.075ZM6.475 55H10L21.925 43.1L18.375 39.575L6.475 51.475V55ZM6.475 47.925L16.7 37.725C16.175 36.975 15.8 36.175 15.575 35.3L6.475 44.4V47.925Z" fill="#FF8A33"/>
</svg>
