<svg width="43" height="49" viewBox="0 0 43 49" fill="none" xmlns="http://www.w3.org/2000/svg">
<path d="M19.6359 10L21.1359 6.5L24.6359 5L21.1359 3.5L19.6359 0L18.1359 3.5L14.6359 5L18.1359 6.5L19.6359 10ZM4.8029 11.8333L5.63623 8.5L8.96956 7.66667L5.63623 6.83333L4.8029 3.5L3.96956 6.83333L0.63623 7.66667L3.96956 8.5L4.8029 11.8333Z" fill="#FF4D1E"/>
<path d="M13.9696 12.3334C8.96956 12.3334 5.63623 17.3334 5.63623 22.3334C5.63623 25.85 7.3029 30.6667 8.96956 32.3334C10.6362 34 12.3029 45.6667 15.6362 45.6667C23.2029 45.6667 18.9696 34 22.3029 34C25.6362 34 21.4029 45.6667 28.9696 45.6667C32.3029 45.6667 33.9696 34 35.6362 32.3334C37.3029 30.6667 38.9696 25.85 38.9696 22.3334C38.9696 17.3334 35.6362 12.3334 30.6362 12.3334C25.6362 12.3334 25.6362 14 22.3029 14C18.9696 14 18.9696 12.3334 13.9696 12.3334ZM13.9696 15.6667C17.3029 15.6667 18.9696 17.3334 22.3029 17.3334C25.6362 17.3334 27.3029 15.6667 30.6362 15.6667C33.4196 15.6667 35.6362 19 35.6362 22.3334C35.6362 25.25 34.2029 29.1834 32.6196 30.7667C31.1862 32.2 29.0696 42.2334 28.1362 42.2334C27.7862 42.2334 27.3029 40.4667 27.3029 38.3167C27.3029 34.9167 26.3529 30.6667 22.3029 30.6667C18.2529 30.6667 17.3029 34.9167 17.3029 38.3167C17.3029 40.4667 16.8196 42.2334 16.4696 42.2334C15.5362 42.2334 13.4196 32.2 11.9862 30.7667C10.4029 29.1834 8.96956 25.25 8.96956 22.3334C8.96956 19 11.1862 15.6667 13.9696 15.6667Z" fill="#FF4D1E"/>
</svg>
