<svg width="40" height="40" viewBox="0 0 40 40" fill="none" xmlns="http://www.w3.org/2000/svg">
<path d="M11.6668 3.33325C6.66683 3.33325 3.3335 8.33325 3.3335 13.3333C3.3335 16.8499 5.00016 21.6666 6.66683 23.3333C8.3335 24.9999 10.0002 36.6666 13.3335 36.6666C20.9002 36.6666 16.6668 24.9999 20.0002 24.9999C23.3335 24.9999 19.1002 36.6666 26.6668 36.6666C30.0002 36.6666 31.6668 24.9999 33.3335 23.3333C35.0002 21.6666 36.6668 16.8499 36.6668 13.3333C36.6668 8.33325 33.3335 3.33325 28.3335 3.33325C23.3335 3.33325 23.3335 4.99992 20.0002 4.99992C16.6668 4.99992 16.6668 3.33325 11.6668 3.33325ZM11.6668 6.66659C15.0002 6.66659 16.6668 8.33325 20.0002 8.33325C23.3335 8.33325 25.0002 6.66659 28.3335 6.66659C31.1168 6.66659 33.3335 9.99992 33.3335 13.3333C33.3335 16.2499 31.9002 20.1833 30.3168 21.7666C28.8835 23.1999 26.7668 33.2333 25.8335 33.2333C25.4835 33.2333 25.0002 31.4666 25.0002 29.3166C25.0002 25.9166 24.0502 21.6666 20.0002 21.6666C15.9502 21.6666 15.0002 25.9166 15.0002 29.3166C15.0002 31.4666 14.5168 33.2333 14.1668 33.2333C13.2335 33.2333 11.1168 23.1999 9.6835 21.7666C8.10016 20.1833 6.66683 16.2499 6.66683 13.3333C6.66683 9.99992 8.8835 6.66659 11.6668 6.66659Z" fill="white"/>
<path d="M10 5.5L20 6V23L14 35L8.5 24L5.5 10.5L10 5.5Z" fill="white"/>
<path d="M23 7L18.5 8.5L18 22.5L22 25L24 32L26 35L28.5 30L31.5 23L33.5 19.5L34.5 11.5L32.5 8L28 6L23 7Z" fill="white"/>
</svg>
