<svg width="44" height="40" viewBox="0 0 44 40" fill="none" xmlns="http://www.w3.org/2000/svg">
<path d="M22.3333 24.1667C16 24.1667 10.3333 20.6667 7.66667 15H4C6.83333 22.3333 14 27.5 22.3333 27.5C30.6667 27.5 37.8333 22.3333 40.6667 15H37C34.3333 20.6667 28.6667 24.1667 22.3333 24.1667Z" fill="white"/>
<rect x="4" y="12" width="36.6667" height="3.33333" fill="white"/>
<g clip-path="url(#clip0_43_1280)">
<path d="M7 14.5C7 15.9774 7.38799 17.4403 8.14181 18.8052C8.89563 20.1701 10.0005 21.4103 11.3934 22.455C14.2064 24.5647 18.0218 25.75 22 25.75C25.9782 25.75 29.7936 24.5647 32.6066 22.455C33.9995 21.4103 35.1044 20.1701 35.8582 18.8052C36.612 17.4403 37 15.9774 37 14.5L7 14.5Z" fill="white"/>
</g>
<defs>
<clipPath id="clip0_43_1280">
<rect width="30" height="36" fill="white" transform="translate(4 32) rotate(-90)"/>
</clipPath>
</defs>
</svg>
