<svg width="40" height="40" viewBox="0 0 40 40" fill="none" xmlns="http://www.w3.org/2000/svg">
<path d="M25 21.6666H27.5V26.3666L31.5667 28.7166L30.3167 30.8833L25 27.8166V21.6666ZM31.6667 13.3333H8.33333V31.6666H16.1167C15.4 30.15 15 28.45 15 26.6666C15 23.5724 16.2292 20.605 18.4171 18.417C20.605 16.2291 23.5725 15 26.6667 15C28.45 15 30.15 15.4 31.6667 16.1166V13.3333ZM8.33333 35C7.44928 35 6.60143 34.6488 5.97631 34.0237C5.35119 33.3985 5 32.5507 5 31.6666V8.33329C5 6.48329 6.48333 4.99996 8.33333 4.99996H10V1.66663H13.3333V4.99996H26.6667V1.66663H30V4.99996H31.6667C32.5507 4.99996 33.3986 5.35115 34.0237 5.97627C34.6488 6.60139 35 7.44924 35 8.33329V18.5C37.0667 20.6 38.3333 23.4833 38.3333 26.6666C38.3333 29.7608 37.1042 32.7283 34.9162 34.9162C32.7283 37.1041 29.7609 38.3333 26.6667 38.3333C23.4833 38.3333 20.6 37.0666 18.5 35H8.33333ZM26.6667 18.5833C24.5228 18.5833 22.4668 19.4349 20.9509 20.9508C19.435 22.4668 18.5833 24.5228 18.5833 26.6666C18.5833 31.1333 22.2 34.75 26.6667 34.75C27.7282 34.75 28.7793 34.5409 29.76 34.1347C30.7407 33.7284 31.6318 33.133 32.3824 32.3824C33.1331 31.6318 33.7285 30.7407 34.1347 29.76C34.5409 28.7793 34.75 27.7281 34.75 26.6666C34.75 22.2 31.1333 18.5833 26.6667 18.5833Z" fill="#FF4D1E"/>
</svg>
