<svg width="40" height="40" viewBox="0 0 40 40" fill="none" xmlns="http://www.w3.org/2000/svg">
<path d="M16.3333 11C18.1014 11 19.7971 11.7024 21.0474 12.9526C22.2976 14.2029 23 15.8986 23 17.6667C23 19.4348 22.2976 21.1305 21.0474 22.3807C19.7971 23.631 18.1014 24.3333 16.3333 24.3333C14.5652 24.3333 12.8695 23.631 11.6193 22.3807C10.369 21.1305 9.66667 19.4348 9.66667 17.6667C9.66667 15.8986 10.369 14.2029 11.6193 12.9526C12.8695 11.7024 14.5652 11 16.3333 11ZM16.3333 27.6667C23.7 27.6667 29.6667 30.65 29.6667 34.3333V37.6667H3V34.3333C3 30.65 8.96667 27.6667 16.3333 27.6667Z" fill="#FF4D1E"/>
<path d="M37.6364 7C36.6136 7 36.0682 7.93333 36.3409 8.66667L33.8864 11.0667C33.6818 11 33.4091 11 33.2045 11.0667L31.4318 9.33333C31.7045 8.6 31.1591 7.66667 30.1364 7.66667C29.1818 7.66667 28.5682 8.6 28.8409 9.33333L25.7045 12.3333C24.9545 12.1333 24 12.6667 24 13.6667C24 14.4 24.6136 15 25.3636 15C26.3182 15 26.9318 14.0667 26.6591 13.3333L29.7273 10.2667C29.9318 10.3333 30.2045 10.3333 30.4091 10.2667L32.1818 12C31.9773 12.6667 32.5227 13.6667 33.5455 13.6667C34.5682 13.6667 35.1136 12.7333 34.8409 12L37.2955 9.6C38.0455 9.8 39 9.26667 39 8.33333C39 7.6 38.3864 7 37.6364 7Z" fill="#FF4D1E"/>
</svg>
