<svg width="40" height="40" viewBox="0 0 40 40" fill="none" xmlns="http://www.w3.org/2000/svg">
<path d="M34.9998 28.3333V13.3333H11.6665V28.3333H34.9998ZM34.9998 4.99996C35.8839 4.99996 36.7317 5.35115 37.3569 5.97627C37.982 6.60139 38.3332 7.44924 38.3332 8.33329V28.3333C38.3332 29.2173 37.982 30.0652 37.3569 30.6903C36.7317 31.3154 35.8839 31.6666 34.9998 31.6666H11.6665C10.7824 31.6666 9.9346 31.3154 9.30948 30.6903C8.68436 30.0652 8.33317 29.2173 8.33317 28.3333V8.33329C8.33317 7.44924 8.68436 6.60139 9.30948 5.97627C9.9346 5.35115 10.7824 4.99996 11.6665 4.99996H13.3332V1.66663H16.6665V4.99996H29.9998V1.66663H33.3332V4.99996H34.9998ZM29.2165 18.4333L21.8165 25.8333L17.3498 21.3666L19.1165 19.6L21.8165 22.3L27.4498 16.6666L29.2165 18.4333ZM4.99984 35H28.3332V38.3333H4.99984C4.11578 38.3333 3.26794 37.9821 2.64281 37.357C2.01769 36.7319 1.6665 35.884 1.6665 35V15H4.99984V35Z" fill="#FF4D1E"/>
</svg>
