<svg width="40" height="40" viewBox="0 0 40 40" fill="none" xmlns="http://www.w3.org/2000/svg">
<path d="M19.9997 3.33337C17.811 3.33337 15.6437 3.76447 13.6216 4.60205C11.5995 5.43963 9.7622 6.66728 8.21456 8.21493C5.08896 11.3405 3.33301 15.5798 3.33301 20C3.33301 24.4203 5.08896 28.6595 8.21456 31.7852C9.7622 33.3328 11.5995 34.5605 13.6216 35.398C15.6437 36.2356 17.811 36.6667 19.9997 36.6667C24.4199 36.6667 28.6592 34.9108 31.7848 31.7852C34.9104 28.6595 36.6663 24.4203 36.6663 20C36.6663 18.0667 36.3163 16.15 35.6497 14.35L32.983 17.0167C33.2163 18 33.333 19 33.333 20C33.333 23.5363 31.9282 26.9276 29.4278 29.4281C26.9273 31.9286 23.5359 33.3334 19.9997 33.3334C16.4635 33.3334 13.0721 31.9286 10.5716 29.4281C8.0711 26.9276 6.66634 23.5363 6.66634 20C6.66634 16.4638 8.0711 13.0724 10.5716 10.572C13.0721 8.07147 16.4635 6.66671 19.9997 6.66671C20.9997 6.66671 21.9997 6.78337 22.983 7.01671L25.6663 4.33337C23.8497 3.68337 21.933 3.33337 19.9997 3.33337ZM31.6663 3.33337L24.9997 10V12.5L20.7497 16.75C20.4997 16.6667 20.2497 16.6667 19.9997 16.6667C19.1156 16.6667 18.2678 17.0179 17.6427 17.643C17.0175 18.2681 16.6663 19.116 16.6663 20C16.6663 20.8841 17.0175 21.7319 17.6427 22.3571C18.2678 22.9822 19.1156 23.3334 19.9997 23.3334C20.8837 23.3334 21.7316 22.9822 22.3567 22.3571C22.9818 21.7319 23.333 20.8841 23.333 20C23.333 19.75 23.333 19.5 23.2497 19.25L27.4997 15H29.9997L36.6663 8.33337H31.6663V3.33337ZM19.9997 10C17.3475 10 14.804 11.0536 12.9286 12.929C11.0532 14.8043 9.99967 17.3479 9.99967 20C9.99967 22.6522 11.0532 25.1957 12.9286 27.0711C14.804 28.9465 17.3475 30 19.9997 30C22.6518 30 25.1954 28.9465 27.0707 27.0711C28.9461 25.1957 29.9997 22.6522 29.9997 20H26.6663C26.6663 21.7682 25.964 23.4638 24.7137 24.7141C23.4635 25.9643 21.7678 26.6667 19.9997 26.6667C18.2316 26.6667 16.5359 25.9643 15.2856 24.7141C14.0354 23.4638 13.333 21.7682 13.333 20C13.333 18.2319 14.0354 16.5362 15.2856 15.286C16.5359 14.0358 18.2316 13.3334 19.9997 13.3334V10Z" fill="#F8AD1D"/>
</svg>
