<svg width="40" height="40" viewBox="0 0 40 40" fill="none" xmlns="http://www.w3.org/2000/svg">
<path d="M30.6667 6.33333H29V3H25.6667V6.33333H12.3333V3H9V6.33333H7.33333C6.44928 6.33333 5.60143 6.68452 4.97631 7.30964C4.35119 7.93476 4 8.78261 4 9.66667V33C4 33.8841 4.35119 34.7319 4.97631 35.357C5.60143 35.9821 6.44928 36.3333 7.33333 36.3333H15.6667V33H7.33333V14.6667H30.6667V16.3333H34V9.66667C34 8.78261 33.6488 7.93476 33.0237 7.30964C32.3986 6.68452 31.5507 6.33333 30.6667 6.33333ZM35.1667 23.5833L33.5 25.25L30.0833 21.9167L31.75 20.25C32.0833 19.9 32.65 19.8833 33.0333 20.25L35.1667 22.3833C35.4833 22.7167 35.4833 23.25 35.1667 23.5833ZM19 32.9L29.1167 22.8L32.5333 26.1333L22.4333 36.3333H19V32.9Z" fill="#FF4D1E"/>
</svg>
