<svg width="40" height="40" viewBox="0 0 40 40" fill="none" xmlns="http://www.w3.org/2000/svg">
<path d="M35 28.3333V13.3333H11.6667V28.3333H35ZM35 5C35.8841 5 36.7319 5.35119 37.357 5.97631C37.9822 6.60143 38.3334 7.44928 38.3334 8.33333V28.3333C38.3334 29.2174 37.9822 30.0652 37.357 30.6904C36.7319 31.3155 35.8841 31.6667 35 31.6667H11.6667C10.7826 31.6667 9.93479 31.3155 9.30966 30.6904C8.68454 30.0652 8.33335 29.2174 8.33335 28.3333V8.33333C8.33335 7.44928 8.68454 6.60143 9.30966 5.97631C9.93479 5.35119 10.7826 5 11.6667 5H13.3334V1.66667H16.6667V5H30V1.66667H33.3334V5H35ZM5.00002 35H28.3334V38.3333H5.00002C4.11597 38.3333 3.26812 37.9821 2.643 37.357C2.01788 36.7319 1.66669 35.8841 1.66669 35V15H5.00002V35Z" fill="#FF4D1E"/>
<rect x="23.3333" y="21.6667" width="1.66667" height="5" fill="#FF4D1E"/>
<rect x="26.6667" y="20" width="1.66667" height="6.66667" fill="#FF4D1E"/>
<rect x="30" y="16.6667" width="1.66667" height="10" fill="#FF4D1E"/>
</svg>
