<svg width="40" height="40" viewBox="0 0 40 40" fill="none" xmlns="http://www.w3.org/2000/svg">
<path d="M8.33332 10H38.3333V30H8.33332V10ZM23.3333 15C24.6594 15 25.9312 15.5268 26.8689 16.4645C27.8065 17.4021 28.3333 18.6739 28.3333 20C28.3333 21.3261 27.8065 22.5979 26.8689 23.5355C25.9312 24.4732 24.6594 25 23.3333 25C22.0072 25 20.7355 24.4732 19.7978 23.5355C18.8601 22.5979 18.3333 21.3261 18.3333 20C18.3333 18.6739 18.8601 17.4021 19.7978 16.4645C20.7355 15.5268 22.0072 15 23.3333 15ZM15 13.3333C15 14.2174 14.6488 15.0652 14.0237 15.6904C13.3986 16.3155 12.5507 16.6667 11.6667 16.6667V23.3333C12.5507 23.3333 13.3986 23.6845 14.0237 24.3096C14.6488 24.9348 15 25.7826 15 26.6667H31.6667C31.6667 25.7826 32.0178 24.9348 32.643 24.3096C33.2681 23.6845 34.1159 23.3333 35 23.3333V16.6667C34.1159 16.6667 33.2681 16.3155 32.643 15.6904C32.0178 15.0652 31.6667 14.2174 31.6667 13.3333H15ZM1.66666 16.6667H4.99999V33.3333H31.6667V36.6667H1.66666V16.6667Z" fill="#FF4D1E"/>
</svg>
