<svg width="40" height="40" viewBox="0 0 40 40" fill="none" xmlns="http://www.w3.org/2000/svg">
<path d="M35 13.3333C32.5 13.3333 31.1667 15.6667 31.8333 17.5L25.8333 23.5C25.3333 23.3333 24.6667 23.3333 24.1667 23.5L19.8333 19.1667C20.5 17.3333 19.1667 15 16.6667 15C14.3333 15 12.8333 17.3333 13.5 19.1667L5.83332 26.6667C3.99999 26.1667 1.66666 27.5 1.66666 30C1.66666 31.8333 3.16666 33.3333 4.99999 33.3333C7.33332 33.3333 8.83332 31 8.16666 29.1667L15.6667 21.5C16.1667 21.6667 16.8333 21.6667 17.3333 21.5L21.6667 25.8333C21.1667 27.5 22.5 30 25 30C27.5 30 28.8333 27.6667 28.1667 25.8333L34.1667 19.8333C36 20.3333 38.3333 19 38.3333 16.6667C38.3333 14.8333 36.8333 13.3333 35 13.3333ZM25 15L26.5 11.5L30 10L26.5 8.5L25 5L23.5 8.5L20 10L23.5 11.5L25 15ZM5.83332 18.3333L6.66666 15L9.99999 14.1667L6.66666 13.3333L5.83332 10L4.99999 13.3333L1.66666 14.1667L4.99999 15L5.83332 18.3333Z" fill="#FF4D1E"/>
</svg>
