<svg width="40" height="40" viewBox="0 0 40 40" fill="none" xmlns="http://www.w3.org/2000/svg">
<path d="M8.33333 28.3334V31.6667H28.3333V28.3334C28.3333 28.3334 28.3333 21.6667 18.3333 21.6667C8.33333 21.6667 8.33333 28.3334 8.33333 28.3334ZM13.3333 13.3334C13.3333 12.3445 13.6266 11.3778 14.176 10.5555C14.7254 9.73328 15.5063 9.09242 16.4199 8.71398C17.3335 8.33554 18.3389 8.23652 19.3088 8.42945C20.2787 8.62238 21.1696 9.09858 21.8689 9.79784C22.5681 10.4971 23.0443 11.388 23.2373 12.3579C23.4302 13.3278 23.3312 14.3332 22.9527 15.2468C22.5743 16.1604 21.9334 16.9413 21.1112 17.4907C20.2889 18.0401 19.3222 18.3334 18.3333 18.3334C17.0073 18.3334 15.7355 17.8066 14.7978 16.8689C13.8601 15.9312 13.3333 14.6595 13.3333 13.3334ZM8 21.7667C7.08895 22.6072 6.35445 23.6208 5.83937 24.7482C5.32429 25.8757 5.03894 27.0944 5 28.3334V31.6667H0V28.3334C0 28.3334 0 22.5834 8 21.7667ZM10 8.33338C10.5036 8.33368 11.004 8.4124 11.4833 8.56671C10.5082 9.96499 9.98545 11.6287 9.98545 13.3334C9.98545 15.0381 10.5082 16.7018 11.4833 18.1C11.004 18.2544 10.5036 18.3331 10 18.3334C8.67392 18.3334 7.40215 17.8066 6.46447 16.8689C5.52678 15.9312 5 14.6595 5 13.3334C5 12.0073 5.52678 10.7355 6.46447 9.79784C7.40215 8.86016 8.67392 8.33338 10 8.33338ZM26.6667 16.6667H31.6667V11.6667H35V16.6667H40V20H35V25H31.6667V20H26.6667V16.6667Z" fill="#FF4D1E"/>
</svg>
