<svg width="44" height="40" viewBox="0 0 44 40" fill="none" xmlns="http://www.w3.org/2000/svg">
<g clip-path="url(#clip0_43_1297)">
<path d="M20 19.1667C13.6666 19.1667 7.99996 15.6667 5.33329 10H1.66663C4.49996 17.3333 11.6666 22.5 20 22.5C28.3333 22.5 35.5 17.3333 38.3333 10H34.6666C32 15.6667 26.3333 19.1667 20 19.1667Z" fill="white"/>
<rect x="1.66663" y="7" width="36.6667" height="3.33333" fill="white"/>
<path d="M36.2938 24.7869L40.0629 21L42.5875 23.5246L38.8006 27.2938L42.5875 31.0629L40.0629 33.5875L36.2938 29.8006L32.5246 33.5875L30 31.0629L33.7869 27.2938L30 23.5246L32.5246 21L36.2938 24.7869Z" fill="white"/>
<g clip-path="url(#clip1_43_1297)">
<path d="M5 9.5C5 10.9774 5.38799 12.4403 6.14181 13.8052C6.89563 15.1701 8.00052 16.4103 9.3934 17.455C12.2064 19.5647 16.0218 20.75 20 20.75C23.9782 20.75 27.7936 19.5647 30.6066 17.455C31.9995 16.4103 33.1044 15.1701 33.8582 13.8052C34.612 12.4403 35 10.9774 35 9.5L5 9.5Z" fill="white"/>
</g>
</g>
<defs>
<clipPath id="clip0_43_1297">
<rect width="44" height="40" fill="white"/>
</clipPath>
<clipPath id="clip1_43_1297">
<rect width="30" height="36" fill="white" transform="translate(2 27) rotate(-90)"/>
</clipPath>
</defs>
</svg>
