<svg width="40" height="40" viewBox="0 0 40 40" fill="none" xmlns="http://www.w3.org/2000/svg">
<path d="M33.3333 6.66667H6.66665C5.78259 6.66667 4.93474 7.01786 4.30962 7.64298C3.6845 8.2681 3.33331 9.11595 3.33331 10V30C3.33331 30.8841 3.6845 31.7319 4.30962 32.357C4.93474 32.9821 5.78259 33.3333 6.66665 33.3333H21.8166C21.7166 32.7833 21.6666 32.2333 21.6666 31.6667C21.6666 26.15 26.15 21.6667 31.6666 21.6667C33.4333 21.6667 35.15 22.1333 36.6666 23.0167V10C36.6666 8.15 35.1833 6.66667 33.3333 6.66667ZM33.3333 18.3333H6.66665V13.3333H33.3333" fill="#FF4D1E"/>
<path d="M30.857 24.1777V26.5648H29.5527V24.1777H30.857ZM30.693 37.5734V39.7883H29.3887V37.5734H30.693ZM31.2426 34.8336C31.2426 34.5328 31.1961 34.284 31.1031 34.0871C31.0102 33.8902 30.8598 33.718 30.652 33.5703C30.4441 33.4227 30.168 33.275 29.8234 33.1273C29.0961 32.832 28.4535 32.5285 27.8957 32.2168C27.3434 31.9051 26.9086 31.5168 26.5914 31.052C26.2797 30.5871 26.1238 29.9828 26.1238 29.2391C26.1238 28.5609 26.2906 27.9703 26.6242 27.4672C26.9633 26.9641 27.4281 26.5758 28.0188 26.3023C28.6148 26.0234 29.3012 25.884 30.0777 25.884C30.6684 25.884 31.207 25.9715 31.6938 26.1465C32.1805 26.3215 32.6016 26.5758 32.957 26.9094C33.3125 27.2375 33.5859 27.6422 33.7773 28.1234C33.9688 28.5992 34.0645 29.1406 34.0645 29.7477H31.3C31.3 29.4359 31.2672 29.168 31.2016 28.9437C31.1414 28.7195 31.0539 28.5363 30.9391 28.3941C30.8242 28.252 30.6902 28.148 30.5371 28.0824C30.384 28.0113 30.2172 27.9758 30.0367 27.9758C29.7633 27.9758 29.5418 28.0359 29.3723 28.1562C29.2027 28.2711 29.0797 28.4242 29.0031 28.6156C28.9266 28.807 28.8883 29.0203 28.8883 29.2555C28.8883 29.5016 28.9293 29.7176 29.0113 29.9035C29.0988 30.084 29.2465 30.2535 29.4543 30.4121C29.6621 30.5652 29.9465 30.7238 30.3074 30.8879C31.0184 31.1887 31.6527 31.5004 32.2105 31.823C32.7684 32.1457 33.2059 32.5422 33.523 33.0125C33.8457 33.4773 34.007 34.0789 34.007 34.8172C34.007 35.5281 33.8402 36.1352 33.5066 36.6383C33.173 37.1359 32.7082 37.516 32.1121 37.7785C31.516 38.041 30.827 38.1723 30.0449 38.1723C29.5199 38.1723 28.9977 38.1039 28.4781 37.9672C27.9641 37.8305 27.4938 37.609 27.0672 37.3027C26.6461 36.991 26.3098 36.5781 26.0582 36.0641C25.8066 35.55 25.6809 34.9184 25.6809 34.1691H28.4453C28.4453 34.5355 28.4891 34.8418 28.5766 35.0879C28.6641 35.334 28.7816 35.5309 28.9293 35.6785C29.0824 35.8207 29.2547 35.9246 29.4461 35.9902C29.6375 36.0504 29.8371 36.0805 30.0449 36.0805C30.3238 36.0805 30.5508 36.0258 30.7258 35.9164C30.9008 35.8016 31.0293 35.6512 31.1113 35.4652C31.1988 35.2738 31.2426 35.0633 31.2426 34.8336Z" fill="#FF4D1E"/>
</svg>
