<svg width="40" height="40" viewBox="0 0 40 40" fill="none" xmlns="http://www.w3.org/2000/svg">
<path d="M11.6666 3.33337C6.66659 3.33337 3.33325 8.33337 3.33325 13.3334C3.33325 16.85 4.99992 21.6667 6.66659 23.3334C8.33325 25 9.99992 36.6667 13.3333 36.6667C20.8999 36.6667 16.6666 25 19.9999 25C23.3333 25 19.0999 36.6667 26.6666 36.6667C29.9999 36.6667 31.6666 25 33.3333 23.3334C34.9999 21.6667 36.6666 16.85 36.6666 13.3334C36.6666 8.33337 33.3333 3.33337 28.3333 3.33337C23.3333 3.33337 23.3333 5.00004 19.9999 5.00004C16.6666 5.00004 16.6666 3.33337 11.6666 3.33337ZM11.6666 6.66671C14.9999 6.66671 16.6666 8.33337 19.9999 8.33337C23.3333 8.33337 24.9999 6.66671 28.3333 6.66671C31.1166 6.66671 33.3333 10 33.3333 13.3334C33.3333 16.25 31.8999 20.1834 30.3166 21.7667C28.8833 23.2 26.7666 33.2334 25.8333 33.2334C25.4833 33.2334 24.9999 31.4667 24.9999 29.3167C24.9999 25.9167 24.0499 21.6667 19.9999 21.6667C15.9499 21.6667 14.9999 25.9167 14.9999 29.3167C14.9999 31.4667 14.5166 33.2334 14.1666 33.2334C13.2333 33.2334 11.1166 23.2 9.68325 21.7667C8.09992 20.1834 6.66659 16.25 6.66659 13.3334C6.66659 10 8.88325 6.66671 11.6666 6.66671Z" fill="#FF4D1E"/>
<path d="M10 5.5L20 6V23L14 35L8.5 24L5.5 10.5L10 5.5Z" fill="#FF4D1E"/>
</svg>
